# 3ds Max Wavefront OBJ Exporter v0.97b - (c)2007 guruware
# File Created: 19.10.2017 13:12:53

#
# object Saw_2
#

v  -0.103457 0.437634 0.006536
v  0.098072 -0.245608 0.006536
v  0.134681 -0.216670 0.006536
v  0.090641 -0.185065 0.006536
v  0.127415 -0.151540 0.006536
v  0.082077 -0.116840 0.006536
v  0.118941 -0.081710 0.006536
v  0.073372 -0.046896 0.006536
v  0.110254 -0.013127 0.006536
v  0.065524 0.020084 0.006536
v  0.102130 0.053296 0.006536
v  0.058558 0.086507 0.006536
v  0.093402 0.120729 0.006536
v  0.049977 0.158207 0.006536
v  0.080208 0.199076 0.006536
v  0.037988 0.239499 0.006536
v  0.064091 0.283637 0.006536
v  0.025290 0.322093 0.006536
v  0.048250 0.362370 0.006536
v  0.013156 0.392209 0.006536
v  0.033083 0.420990 0.006536
v  0.001907 0.438347 0.006536
v  -0.103457 -0.245898 0.006536
v  -0.103457 0.437634 -0.006560
v  0.098072 -0.245608 -0.006560
v  0.134681 -0.216670 -0.006560
v  0.090641 -0.185065 -0.006560
v  0.127415 -0.151540 -0.006560
v  0.082077 -0.116840 -0.006560
v  0.118941 -0.081710 -0.006560
v  0.073372 -0.046896 -0.006560
v  0.110254 -0.013127 -0.006560
v  0.065524 0.020084 -0.006560
v  0.102130 0.053296 -0.006560
v  0.058558 0.086507 -0.006560
v  0.093402 0.120729 -0.006560
v  0.049977 0.158207 -0.006560
v  0.080208 0.199076 -0.006560
v  0.037988 0.239499 -0.006560
v  0.064091 0.283637 -0.006560
v  0.025290 0.322093 -0.006560
v  0.048250 0.362370 -0.006560
v  0.013156 0.392209 -0.006560
v  0.033083 0.420990 -0.006560
v  0.001907 0.438347 -0.006560
v  -0.103457 -0.245898 -0.006560
v  0.097576 -0.438347 0.012864
v  0.097576 -0.438347 -0.012887
v  -0.134646 -0.385452 0.012864
v  -0.134646 -0.385452 -0.012887
v  0.097576 -0.381153 0.012864
v  -0.134646 -0.336945 0.012864
v  0.097576 -0.381153 -0.012887
v  -0.134646 -0.336945 -0.012887
v  -0.087104 -0.395457 0.012864
v  0.050033 -0.438347 0.012864
v  0.050033 -0.438347 -0.012887
v  -0.087104 -0.395457 -0.012887
v  0.050033 -0.381153 0.012864
v  -0.087104 -0.346949 0.012864
v  -0.087104 -0.346949 -0.012887
v  0.050033 -0.381153 -0.012887
v  0.050033 -0.238924 0.012864
v  -0.087104 -0.238924 0.012864
v  -0.087104 -0.238924 -0.012887
v  0.050033 -0.238924 -0.012887
v  -0.087104 -0.289844 -0.012887
v  0.050033 -0.289844 -0.012887
v  0.097576 -0.238924 0.012864
v  0.097576 -0.238924 -0.012887
v  0.097576 -0.289844 -0.012887
v  0.097576 -0.289844 0.012864
v  0.050033 -0.289844 0.012864
v  -0.087104 -0.289844 0.012864
v  -0.134646 -0.238924 0.012864
v  -0.134646 -0.289844 0.012864
v  -0.134646 -0.289844 -0.012887
v  -0.134646 -0.238924 -0.012887
# 78 vertices

vn 0.000000 -0.000000 1.000000
vn 0.000000 -0.000000 1.000000
vn 0.000000 -0.000000 1.000000
vn 0.000000 -0.000000 1.000000
vn -0.000000 -0.000000 1.000000
vn 0.000000 -0.000000 1.000000
vn 0.000000 -0.000000 1.000000
vn 0.000000 -0.000000 1.000000
vn 0.000000 -0.000000 1.000000
vn 0.000000 -0.000000 1.000000
vn 0.000000 -0.000000 1.000000
vn 0.000000 -0.000000 1.000000
vn 0.000000 -0.000000 1.000000
vn 0.000000 -0.000000 1.000000
vn 0.000000 -0.000000 1.000000
vn 0.000000 -0.000000 1.000000
vn 0.000000 -0.000000 1.000000
vn 0.000000 -0.000000 1.000000
vn 0.000000 -0.000000 1.000000
vn 0.000000 -0.000000 1.000000
vn 0.000000 -0.000000 1.000000
vn 0.000000 -0.000000 1.000000
vn -0.000000 -0.000000 1.000000
vn 0.000000 -0.000000 1.000000
vn 0.000000 -0.000000 1.000000
vn 0.000000 -0.000000 1.000000
vn 0.000000 -0.000000 1.000000
vn 0.000000 -0.000000 1.000000
vn 0.000000 -0.000000 1.000000
vn 0.000000 -0.000000 1.000000
vn 0.000000 -0.000000 1.000000
vn 0.000000 -0.000000 1.000000
vn 0.000000 -0.000000 1.000000
vn 0.000000 -0.000000 1.000000
vn 0.000000 -0.000000 1.000000
vn 0.000000 -0.000000 1.000000
vn 0.000000 -0.000000 1.000000
vn 0.000000 -0.000000 1.000000
vn 0.000000 -0.000000 1.000000
vn 0.000000 -0.000000 1.000000
vn 0.000000 -0.000000 1.000000
vn 0.000000 -0.000000 1.000000
vn 0.000000 -0.000000 1.000000
vn 0.000000 -0.000000 1.000000
vn 0.000000 -0.000000 1.000000
vn 0.000000 -0.000000 1.000000
vn 0.000000 -0.000000 1.000000
vn 0.000000 -0.000000 1.000000
vn 0.000000 -0.000000 1.000000
vn 0.000000 -0.000000 1.000000
vn 0.000000 -0.000000 1.000000
vn 0.000000 -0.000000 1.000000
vn 0.000000 -0.000000 1.000000
vn 0.000000 -0.000000 1.000000
vn 0.000000 -0.000000 1.000000
vn 0.000000 -0.000000 1.000000
vn 0.000000 -0.000000 1.000000
vn 0.000000 -0.000000 1.000000
vn 0.000000 -0.000000 1.000000
vn 0.000000 -0.000000 1.000000
vn 0.000000 -0.000000 1.000000
vn 0.000000 -0.000000 1.000000
vn 0.000000 -0.000000 1.000000
vn -0.000000 0.000000 -1.000000
vn 0.000000 0.000000 -1.000000
vn -0.000000 0.000000 -1.000000
vn -0.000000 0.000000 -1.000000
vn -0.000000 0.000000 -1.000000
vn -0.000000 0.000000 -1.000000
vn -0.000000 0.000000 -1.000000
vn 0.000000 0.000000 -1.000000
vn -0.000000 0.000000 -1.000000
vn -0.000000 0.000000 -1.000000
vn 0.000000 0.000000 -1.000000
vn -0.000000 0.000000 -1.000000
vn -0.000000 0.000000 -1.000000
vn 0.000000 0.000000 -1.000000
vn -0.000000 0.000000 -1.000000
vn -0.000000 0.000000 -1.000000
vn 0.000000 0.000000 -1.000000
vn -0.000000 0.000000 -1.000000
vn -0.000000 0.000000 -1.000000
vn 0.000000 0.000000 -1.000000
vn -0.000000 0.000000 -1.000000
vn -0.000000 0.000000 -1.000000
vn 0.000000 0.000000 -1.000000
vn -0.000000 0.000000 -1.000000
vn -0.000000 0.000000 -1.000000
vn -0.000000 0.000000 -1.000000
vn -0.000000 0.000000 -1.000000
vn -0.000000 0.000000 -1.000000
vn -0.000000 0.000000 -1.000000
vn -0.000000 0.000000 -1.000000
vn -0.000000 0.000000 -1.000000
vn -0.000000 0.000000 -1.000000
vn -0.000000 0.000000 -1.000000
vn -0.000000 0.000000 -1.000000
vn -0.000000 0.000000 -1.000000
vn -0.000000 0.000000 -1.000000
vn -0.000000 0.000000 -1.000000
vn -0.000000 0.000000 -1.000000
vn -0.000000 0.000000 -1.000000
vn -0.000000 0.000000 -1.000000
vn -0.000000 0.000000 -1.000000
vn -0.000000 0.000000 -1.000000
vn -0.000000 0.000000 -1.000000
vn -0.000000 0.000000 -1.000000
vn -0.000000 0.000000 -1.000000
vn -0.000000 0.000000 -1.000000
vn -0.000000 0.000000 -1.000000
vn -0.000000 0.000000 -1.000000
vn -0.000000 0.000000 -1.000000
vn -0.000000 0.000000 -1.000000
vn -0.000000 0.000000 -1.000000
vn -0.000000 0.000000 -1.000000
vn -0.000000 0.000000 -1.000000
vn -0.000000 0.000000 -1.000000
vn -0.000000 0.000000 -1.000000
vn -0.000000 0.000000 -1.000000
vn -0.000000 0.000000 -1.000000
vn -0.000000 0.000000 -1.000000
vn -0.000000 0.000000 -1.000000
vn -0.000000 0.000000 -1.000000
vn -0.000000 0.000000 -1.000000
vn -0.000000 0.000000 -1.000000
vn -0.000000 0.000000 -1.000000
vn 0.860746 -0.509034 -0.000000
vn 0.860746 -0.509034 -0.000000
vn 0.860746 -0.509034 -0.000000
vn 0.703943 0.710256 -0.000000
vn 0.703943 0.710256 -0.000000
vn 0.703943 0.710256 -0.000000
vn 0.803947 -0.594701 -0.000000
vn 0.803947 -0.594701 -0.000000
vn 0.803947 -0.594701 -0.000000
vn 0.691567 0.722312 -0.000000
vn 0.691567 0.722312 -0.000000
vn 0.691567 0.722312 -0.000000
vn 0.700714 -0.713443 -0.000000
vn 0.700714 -0.713443 -0.000000
vn 0.700714 -0.713443 -0.000000
vn 0.653367 0.757041 -0.000000
vn 0.653367 0.757041 -0.000000
vn 0.653367 0.757041 -0.000000
vn 0.671933 -0.740612 -0.000000
vn 0.671933 -0.740612 -0.000000
vn 0.671933 -0.740612 -0.000000
vn 0.606209 0.795305 -0.000000
vn 0.606209 0.795305 -0.000000
vn 0.606209 0.795305 -0.000000
vn 0.675291 -0.737551 -0.000000
vn 0.675291 -0.737551 -0.000000
vn 0.675291 -0.737551 -0.000000
vn 0.596131 0.802887 -0.000000
vn 0.596131 0.802887 -0.000000
vn 0.596131 0.802887 -0.000000
vn 0.689875 -0.723928 -0.000000
vn 0.689875 -0.723928 -0.000000
vn 0.689875 -0.723928 -0.000000
vn 0.607088 0.794635 -0.000000
vn 0.607088 0.794635 -0.000000
vn 0.607088 0.794635 -0.000000
vn 0.673715 -0.738991 -0.000000
vn 0.673715 -0.738991 -0.000000
vn 0.673715 -0.738992 -0.000000
vn 0.607782 0.794104 -0.000000
vn 0.607782 0.794104 -0.000000
vn 0.607782 0.794104 -0.000000
vn 0.620122 -0.784505 -0.000000
vn 0.328930 -0.944354 -0.000000
vn 0.328931 -0.944354 -0.000000
vn 0.583039 0.812444 -0.000000
vn 0.583039 0.812444 -0.000000
vn 0.583039 0.812444 -0.000000
vn 0.868754 -0.495243 -0.000000
vn 0.868754 -0.495243 -0.000000
vn 0.868754 -0.495243 -0.000000
vn 0.647767 0.761838 -0.000000
vn 0.647767 0.761838 -0.000000
vn 0.647767 0.761838 -0.000000
vn -1.000000 0.000000 -0.000000
vn -1.000000 0.000000 -0.000000
vn -1.000000 0.000000 -0.000000
vn -0.006768 0.999977 -0.000000
vn 0.248001 0.968760 -0.000000
vn 0.248001 0.968760 -0.000000
vn 0.822161 -0.569254 -0.000000
vn 0.822161 -0.569254 -0.000000
vn 0.822161 -0.569254 -0.000000
vn 0.248001 0.968760 -0.000000
vn 0.486431 0.873719 -0.000000
vn 0.486431 0.873719 -0.000000
vn 0.328930 -0.944354 -0.000000
vn 0.001443 -0.999999 -0.000000
vn 0.001443 -0.999999 -0.000000
vn -0.150977 -0.988537 -0.000000
vn -0.252499 -0.967597 -0.000000
vn -0.150977 -0.988537 -0.000000
vn 0.000000 -0.000000 -1.000000
vn 0.000000 -0.000000 -1.000000
vn 0.000000 -0.000000 -1.000000
vn 1.000000 0.000000 -0.000000
vn 1.000000 0.000000 -0.000000
vn 1.000000 0.000000 -0.000000
vn -0.000000 -0.000000 1.000000
vn -0.000000 -0.000000 1.000000
vn -0.000000 -0.000000 1.000000
vn 0.242002 0.970276 -0.000005
vn 0.242002 0.970276 -0.000001
vn 0.242002 0.970276 -0.000004
vn -1.000000 0.000000 -0.000000
vn -1.000000 0.000000 -0.000000
vn -1.000000 0.000000 -0.000000
vn -0.252499 -0.967597 -0.000000
vn -0.205926 -0.978567 -0.000000
vn -0.252499 -0.967597 -0.000000
vn -0.150977 -0.988537 -0.000000
vn 0.000000 -1.000000 -0.000000
vn -0.150977 -0.988537 -0.000000
vn 0.000000 -0.000000 -1.000000
vn 0.000000 -0.000000 -1.000000
vn 0.000000 -0.000000 -1.000000
vn 0.000000 -0.000000 -1.000000
vn 0.000000 -0.000000 -1.000000
vn 0.000000 -0.000000 -1.000000
vn -0.000000 -0.000000 1.000000
vn -0.000000 0.000000 1.000000
vn -0.000000 0.000000 1.000000
vn -0.000000 -0.000000 1.000000
vn 0.000000 -0.000000 1.000000
vn -0.000000 -0.000000 1.000000
vn -1.000000 0.000000 -0.000000
vn -1.000000 0.000000 -0.000000
vn -1.000000 0.000000 -0.000000
vn -0.000000 -0.000000 1.000000
vn -0.000000 -0.000000 1.000000
vn -0.000000 -0.000000 1.000000
vn 1.000000 0.000000 -0.000000
vn 1.000000 0.000000 -0.000000
vn 1.000000 0.000000 -0.000000
vn -1.000000 0.000000 -0.000000
vn -1.000000 0.000000 -0.000000
vn -1.000000 0.000000 -0.000000
vn -0.000000 1.000000 -0.000000
vn -0.000000 1.000000 -0.000000
vn -0.000000 1.000000 -0.000000
vn 0.000000 0.000000 -1.000000
vn 0.000000 0.000000 -1.000000
vn 0.000000 0.000000 -1.000000
vn 1.000000 0.000000 -0.000000
vn 1.000000 0.000000 -0.000000
vn 1.000000 0.000000 -0.000000
vn -0.000000 -0.000000 1.000000
vn -0.000000 -0.000000 1.000000
vn -0.000000 -0.000000 1.000000
vn -0.000000 -1.000000 -0.000001
vn -0.000000 -1.000000 -0.000000
vn -0.000000 -1.000000 -0.000000
vn -1.000000 0.000000 -0.000000
vn -1.000000 0.000000 -0.000000
vn -1.000000 0.000000 -0.000000
vn -0.000000 1.000000 -0.000000
vn 0.000000 1.000000 -0.000000
vn 0.000000 1.000000 -0.000000
vn -0.000000 1.000000 -0.000000
vn 0.000000 1.000000 -0.000000
vn 0.000000 1.000000 -0.000000
vn 0.000000 0.000000 -1.000000
vn 0.000000 0.000000 -1.000000
vn 0.000000 0.000000 -1.000000
vn 0.000000 0.000000 -1.000000
vn 0.000000 0.000000 -1.000000
vn 0.000000 0.000000 -1.000000
vn -0.000000 -0.000000 1.000000
vn -0.000000 -0.000000 1.000000
vn -0.000000 -0.000000 1.000000
vn -0.000000 -0.000000 1.000000
vn -0.000000 -0.000000 1.000000
vn -0.000000 -0.000000 1.000000
vn 0.000000 0.000000 -1.000000
vn 0.000000 0.000000 -1.000000
vn 0.000000 0.000000 -1.000000
vn -0.000000 -0.000000 1.000000
vn -0.000000 -0.000000 1.000000
vn -0.000000 -0.000000 1.000000
vn 1.000000 0.000000 -0.000000
vn 1.000000 0.000000 -0.000000
vn 1.000000 0.000000 -0.000000
vn 0.000000 0.000000 -1.000000
vn 0.000000 0.000000 -1.000000
vn 0.000000 0.000000 -1.000000
vn 0.860746 -0.509034 -0.000000
vn 0.860746 -0.509034 -0.000000
vn 0.860746 -0.509034 -0.000000
vn 0.703943 0.710256 -0.000000
vn 0.703943 0.710256 -0.000000
vn 0.703943 0.710256 -0.000000
vn 0.803947 -0.594701 -0.000000
vn 0.803947 -0.594701 -0.000000
vn 0.803947 -0.594701 -0.000000
vn 0.691567 0.722312 -0.000000
vn 0.691567 0.722312 -0.000000
vn 0.691567 0.722312 -0.000000
vn 0.700714 -0.713443 -0.000000
vn 0.700714 -0.713443 -0.000000
vn 0.700714 -0.713443 -0.000000
vn 0.653367 0.757041 -0.000000
vn 0.653367 0.757041 -0.000000
vn 0.653367 0.757041 -0.000000
vn 0.671933 -0.740612 -0.000000
vn 0.671933 -0.740612 -0.000000
vn 0.671933 -0.740612 -0.000000
vn 0.606209 0.795305 -0.000000
vn 0.606209 0.795305 -0.000000
vn 0.606209 0.795305 -0.000000
vn 0.675291 -0.737551 -0.000000
vn 0.675291 -0.737551 -0.000000
vn 0.675291 -0.737551 -0.000000
vn 0.596131 0.802887 -0.000000
vn 0.596131 0.802887 -0.000000
vn 0.596131 0.802887 -0.000000
vn 0.689875 -0.723928 -0.000000
vn 0.689875 -0.723928 -0.000000
vn 0.689875 -0.723928 -0.000000
vn 0.607088 0.794635 -0.000000
vn 0.607088 0.794635 -0.000000
vn 0.607088 0.794635 -0.000000
vn 0.673715 -0.738992 -0.000000
vn 0.673715 -0.738991 -0.000000
vn 0.673715 -0.738991 -0.000000
vn 0.607782 0.794104 -0.000000
vn 0.607782 0.794104 -0.000000
vn 0.607782 0.794104 -0.000000
vn 0.328931 -0.944354 -0.000000
vn 0.620122 -0.784505 -0.000000
vn 0.620122 -0.784505 -0.000000
vn 0.583039 0.812444 -0.000000
vn 0.583039 0.812444 -0.000000
vn 0.583039 0.812444 -0.000000
vn 0.868754 -0.495243 -0.000000
vn 0.868754 -0.495243 -0.000000
vn 0.868754 -0.495243 -0.000000
vn 0.647767 0.761838 -0.000000
vn 0.647767 0.761838 -0.000000
vn 0.647767 0.761838 -0.000000
vn -1.000000 0.000000 -0.000000
vn -1.000000 0.000000 -0.000000
vn -1.000000 0.000000 -0.000000
vn 0.248001 0.968760 -0.000000
vn -0.006768 0.999977 -0.000000
vn -0.006768 0.999977 -0.000000
vn 0.822161 -0.569254 -0.000000
vn 0.822161 -0.569254 -0.000000
vn 0.822161 -0.569254 -0.000000
vn 0.486431 0.873719 -0.000000
vn 0.248001 0.968760 -0.000000
vn 0.248001 0.968760 -0.000000
vn 0.001443 -0.999999 -0.000000
vn 0.328931 -0.944354 -0.000000
vn 0.328930 -0.944354 -0.000000
vn -0.252499 -0.967597 -0.000000
vn -0.252499 -0.967597 -0.000000
vn -0.150977 -0.988537 -0.000000
vn 0.000000 -0.000000 -1.000000
vn 0.000000 -0.000000 -1.000000
vn 0.000000 -0.000000 -1.000000
vn 1.000000 0.000000 -0.000000
vn 1.000000 0.000000 -0.000000
vn 1.000000 0.000000 -0.000000
vn -0.000000 -0.000000 1.000000
vn -0.000000 0.000000 1.000000
vn -0.000000 -0.000000 1.000000
vn 0.242002 0.970276 -0.000001
vn 0.242001 0.970276 -0.000000
vn 0.242002 0.970276 -0.000004
vn -1.000000 0.000000 -0.000000
vn -1.000000 0.000000 -0.000000
vn -1.000000 0.000000 -0.000000
vn -0.205926 -0.978567 -0.000000
vn -0.205926 -0.978567 -0.000000
vn -0.252499 -0.967597 -0.000000
vn 0.000000 -1.000000 -0.000000
vn 0.000000 -1.000000 -0.000000
vn -0.150977 -0.988537 -0.000000
vn 0.000000 -0.000000 -1.000000
vn 0.000000 -0.000000 -1.000000
vn 0.000000 -0.000000 -1.000000
vn 0.000000 -0.000000 -1.000000
vn 0.000000 -0.000000 -1.000000
vn 0.000000 -0.000000 -1.000000
vn -0.000000 0.000000 1.000000
vn 0.000000 0.000000 1.000000
vn -0.000000 0.000000 1.000000
vn 0.000000 -0.000000 1.000000
vn 0.000000 -0.000000 1.000000
vn -0.000000 -0.000000 1.000000
vn -1.000000 0.000000 -0.000000
vn -1.000000 0.000000 -0.000000
vn -1.000000 0.000000 -0.000000
vn -0.000000 -0.000000 1.000000
vn -0.000000 -0.000000 1.000000
vn -0.000000 -0.000000 1.000000
vn 1.000000 0.000000 -0.000000
vn 1.000000 0.000000 -0.000000
vn 1.000000 0.000000 -0.000000
vn -1.000000 0.000000 -0.000000
vn -1.000000 0.000000 -0.000000
vn -1.000000 0.000000 -0.000000
vn -0.000000 1.000000 -0.000000
vn -0.000000 1.000000 -0.000000
vn -0.000000 1.000000 -0.000000
vn 0.000000 0.000000 -1.000000
vn 0.000000 0.000000 -1.000000
vn 0.000000 0.000000 -1.000000
vn 1.000000 0.000000 -0.000000
vn 1.000000 0.000000 -0.000000
vn 1.000000 0.000000 -0.000000
vn -0.000000 -0.000000 1.000000
vn -0.000000 -0.000000 1.000000
vn -0.000000 -0.000000 1.000000
vn -0.000000 -1.000000 -0.000000
vn 0.000000 -1.000000 -0.000001
vn -0.000000 -1.000000 -0.000001
vn -1.000000 0.000000 -0.000000
vn -1.000000 0.000000 -0.000000
vn -1.000000 0.000000 -0.000000
vn 0.000000 1.000000 -0.000000
vn -0.000000 1.000000 -0.000000
vn -0.000000 1.000000 -0.000000
vn 0.000000 1.000000 -0.000000
vn -0.000000 1.000000 -0.000000
vn -0.000000 1.000000 -0.000000
vn 0.000000 0.000000 -1.000000
vn 0.000000 0.000000 -1.000000
vn 0.000000 0.000000 -1.000000
vn 0.000000 0.000000 -1.000000
vn 0.000000 0.000000 -1.000000
vn 0.000000 0.000000 -1.000000
vn -0.000000 -0.000000 1.000000
vn -0.000000 -0.000000 1.000000
vn -0.000000 -0.000000 1.000000
vn -0.000000 -0.000000 1.000000
vn -0.000000 -0.000000 1.000000
vn -0.000000 -0.000000 1.000000
vn 0.000000 0.000000 -1.000000
vn 0.000000 0.000000 -1.000000
vn 0.000000 0.000000 -1.000000
vn 0.000000 -0.000000 1.000000
vn 0.000000 -0.000000 1.000000
vn 0.000000 -0.000000 1.000000
vn 1.000000 0.000000 -0.000000
vn 1.000000 0.000000 -0.000000
vn 1.000000 0.000000 -0.000000
vn 0.000000 0.000000 -1.000000
vn 0.000000 0.000000 -1.000000
vn 0.000000 0.000000 -1.000000
# 456 vertex normals

vt 0.782483 0.365094 1.000000
vt 0.789848 0.337674 1.000000
vt 0.791344 0.338979 1.000000
vt 0.790093 0.340285 1.000000
vt 0.791556 0.341591 1.000000
vt 0.790215 0.342897 1.000000
vt 0.791627 0.344202 1.000000
vt 0.790215 0.345508 1.000000
vt 0.791556 0.346814 1.000000
vt 0.790093 0.348119 1.000000
vt 0.791344 0.349425 1.000000
vt 0.789848 0.350731 1.000000
vt 0.790978 0.352076 1.000000
vt 0.789429 0.353550 1.000000
vt 0.790346 0.355157 1.000000
vt 0.788796 0.356735 1.000000
vt 0.789517 0.358428 1.000000
vt 0.788046 0.359898 1.000000
vt 0.788616 0.361460 1.000000
vt 0.787279 0.362640 1.000000
vt 0.787766 0.363825 1.000000
vt 0.786594 0.364564 1.000000
vt 0.782483 0.347510 1.000001
vt 0.847645 0.345282 0.000000
vt 0.847645 0.345300 0.000000
vt 0.847663 0.345282 0.000000
vt 0.847663 0.345300 0.000000
vt 0.847645 0.345282 0.000000
vt 0.847663 0.345282 0.000000
vt 0.847645 0.345300 0.000000
vt 0.847663 0.345300 0.000000
vt 0.847645 0.345282 0.000000
vt 0.847645 0.345300 0.000000
vt 0.847645 0.345282 0.000000
vt 0.847645 0.345300 0.000000
vt 0.847663 0.345282 0.000000
vt 0.847663 0.345300 0.000000
vt 0.847645 0.345297 0.000000
vt 0.847645 0.345285 0.000000
vt 0.847663 0.345297 0.000000
vt 0.847663 0.345285 0.000000
vt 0.847663 0.345285 0.000000
vt 0.847663 0.345297 0.000000
vt 0.847645 0.345285 0.000000
vt 0.847645 0.345297 0.000000
vt 0.847645 0.345285 0.000000
vt 0.847645 0.345297 0.000000
vt 0.852705 0.341846 0.000000
vt 0.842383 0.347811 0.000000
vt 0.847663 0.345297 0.000000
vt 0.847663 0.345285 0.000000
vt 0.842668 0.348736 0.000000
vt 0.852927 0.342622 0.000000
vt 0.847663 0.345285 0.000000
vt 0.847663 0.345297 0.000000
vt 0.847645 0.345297 0.000000
vt 0.847645 0.345285 0.000000
vt 0.847663 0.345285 0.000000
vt 0.847663 0.345297 0.000000
vt 0.847663 0.345297 0.000000
vt 0.847663 0.345285 0.000000
vt 0.847645 0.345282 0.000000
vt 0.847645 0.345282 0.000000
vt 0.847645 0.345282 0.000000
vt 0.847645 0.345282 0.000000
vt 0.847645 0.345285 0.000000
vt 0.847645 0.345297 0.000000
vt 0.847645 0.345297 0.000000
vt 0.847645 0.345285 0.000000
vt 0.850704 0.343000 0.000000
vt 0.842803 0.347336 0.000000
vt 0.843304 0.348165 0.000000
vt 0.851269 0.343978 0.000000
vt 0.847663 0.345300 0.000000
vt 0.847645 0.345300 0.000000
vt 0.847645 0.345300 0.000000
vt 0.847663 0.345300 0.000000
vt 0.847645 0.345300 0.000000
vt 0.847663 0.345282 0.000000
vt 0.847663 0.345300 0.000000
vt 0.847663 0.345282 0.000000
vt 0.847663 0.345282 0.000000
vt 0.847645 0.345300 0.000000
# 83 texture coords

g Saw_2
s 1
f 16/16/1 17/17/2 18/18/3 
f 14/14/4 15/15/5 16/16/6 
f 12/12/7 13/13/8 14/14/9 
f 10/10/10 11/11/11 12/12/12 
f 8/8/13 9/9/14 10/10/15 
f 6/6/16 7/7/17 8/8/18 
f 4/4/19 5/5/20 6/6/21 
f 2/2/22 3/3/23 4/4/24 
f 18/18/25 19/19/26 20/20/27 
f 23/23/28 20/20/29 22/22/30 
f 1/1/31 23/23/32 22/22/33 
f 20/20/34 21/21/35 22/22/36 
f 20/20/37 23/23/38 18/18/39 
f 18/18/40 23/23/41 16/16/42 
f 16/16/43 23/23/44 14/14/45 
f 14/14/46 23/23/47 12/12/48 
f 12/12/49 23/23/50 10/10/51 
f 10/10/52 23/23/53 8/8/54 
f 8/8/55 23/23/56 6/6/57 
f 6/6/58 23/23/59 4/4/60 
f 4/4/61 23/23/62 2/2/63 
f 41/18/64 40/17/65 39/16/66 
f 39/16/67 38/15/68 37/14/69 
f 37/14/70 36/13/71 35/12/72 
f 35/12/73 34/11/74 33/10/75 
f 33/10/76 32/9/77 31/8/78 
f 31/8/79 30/7/80 29/6/81 
f 29/6/82 28/5/83 27/4/84 
f 27/4/85 26/3/86 25/2/87 
f 43/20/88 42/19/89 41/18/90 
f 45/22/91 43/20/92 46/23/93 
f 45/22/94 46/23/95 24/1/96 
f 45/22/97 44/21/98 43/20/99 
f 41/18/100 46/23/101 43/20/102 
f 39/16/103 46/23/104 41/18/105 
f 37/14/106 46/23/107 39/16/108 
f 35/12/109 46/23/110 37/14/111 
f 33/10/112 46/23/113 35/12/114 
f 31/8/115 46/23/116 33/10/117 
f 29/6/118 46/23/119 31/8/120 
f 27/4/121 46/23/122 29/6/123 
f 25/2/124 46/23/125 27/4/126 
s 2
f 17/17/127 16/16/128 39/16/129 
s 4
f 18/18/130 17/17/131 40/17/132 
s 2
f 15/15/133 14/14/134 37/14/135 
s 4
f 16/16/136 15/15/137 38/15/138 
s 2
f 13/13/139 12/12/140 35/12/141 
s 4
f 14/14/142 13/13/143 36/13/144 
s 2
f 11/11/145 10/10/146 33/10/147 
s 4
f 12/12/148 11/11/149 34/11/150 
s 2
f 9/9/151 8/8/152 31/8/153 
s 4
f 10/10/154 9/9/155 32/9/156 
s 2
f 7/7/157 6/6/158 29/6/159 
s 4
f 8/8/160 7/7/161 30/7/162 
s 2
f 5/5/163 4/4/164 27/4/165 
s 4
f 6/6/166 5/5/167 28/5/168 
s 2
f 3/3/169 2/2/170 25/2/171 
s 4
f 4/4/172 3/3/173 26/3/174 
s 2
f 19/19/175 18/18/176 41/18/177 
s 4
f 20/20/178 19/19/179 42/19/180 
f 23/23/181 1/1/182 24/1/183 
s 2
f 1/1/184 22/22/185 45/22/186 
s 8
f 21/21/187 20/20/188 43/20/189 
s 2
f 22/22/190 21/21/191 44/21/192 
f 2/2/193 23/23/194 46/23/195 
s 1
f 56/41/196 55/40/197 57/44/198 
s 32
f 57/42/199 58/43/200 62/51/201 
s 4
f 47/24/202 53/34/203 51/32/204 
s 2
f 59/46/205 60/47/206 56/39/207 
s 1
f 62/53/208 61/52/209 59/48/210 
s off
f 49/31/211 52/33/212 50/27/213 
s 1
f 55/40/214 49/31/215 58/45/216 
f 57/44/217 48/28/218 56/41/219 
s 32
f 58/43/220 50/27/221 61/50/222 
f 62/51/223 53/36/224 57/42/225 
s 2
f 60/47/226 52/33/227 55/38/228 
f 56/39/229 47/24/230 59/46/231 
s off
f 54/35/232 76/75/233 77/76/234 
f 52/33/235 60/47/236 76/75/237 
f 60/49/238 61/52/239 74/72/240 
f 62/53/241 59/48/242 68/70/243 
s 1
f 66/57/244 65/56/245 64/55/246 
s 32
f 68/61/247 67/60/248 65/59/249 
s 4
f 69/62/250 71/64/251 70/63/252 
s 2
f 63/69/253 64/68/254 74/67/255 
s 1
f 73/73/256 74/72/257 67/71/258 
s off
f 78/77/259 77/76/260 76/75/261 
s 1
f 65/56/262 78/78/263 75/74/264 
f 63/54/265 69/79/266 70/63/267 
s 32
f 67/60/268 77/80/269 78/77/270 
f 66/58/271 70/82/272 71/81/273 
s 2
f 64/68/274 75/83/275 76/75/276 
f 73/66/277 72/65/278 69/62/279 
s off
f 67/60/280 61/50/281 77/80/282 
f 73/66/283 51/32/284 72/65/285 
f 72/65/286 51/32/287 71/64/288 
f 71/81/289 53/36/290 68/61/291 
s 2
f 39/16/292 40/17/293 17/17/294 
s 4
f 40/17/295 41/18/296 18/18/297 
s 2
f 37/14/298 38/15/299 15/15/300 
s 4
f 38/15/301 39/16/302 16/16/303 
s 2
f 35/12/304 36/13/305 13/13/306 
s 4
f 36/13/307 37/14/308 14/14/309 
s 2
f 33/10/310 34/11/311 11/11/312 
s 4
f 34/11/313 35/12/314 12/12/315 
s 2
f 31/8/316 32/9/317 9/9/318 
s 4
f 32/9/319 33/10/320 10/10/321 
s 2
f 29/6/322 30/7/323 7/7/324 
s 4
f 30/7/325 31/8/326 8/8/327 
s 2
f 27/4/328 28/5/329 5/5/330 
s 4
f 28/5/331 29/6/332 6/6/333 
s 2
f 25/2/334 26/3/335 3/3/336 
s 4
f 26/3/337 27/4/338 4/4/339 
s 2
f 41/18/340 42/19/341 19/19/342 
s 4
f 42/19/343 43/20/344 20/20/345 
f 24/1/346 46/23/347 23/23/348 
s 2
f 45/22/349 24/1/350 1/1/351 
s 8
f 43/20/352 44/21/353 21/21/354 
s 2
f 44/21/355 45/22/356 22/22/357 
f 46/23/358 25/2/359 2/2/360 
s 1
f 55/40/361 58/45/362 57/44/363 
s 32
f 58/43/364 61/50/365 62/51/366 
s 4
f 47/24/367 48/28/368 53/34/369 
s 2
f 60/47/370 55/38/371 56/39/372 
s 1
f 61/52/373 60/49/374 59/48/375 
s off
f 52/33/376 54/35/377 50/27/378 
s 1
f 49/31/379 50/30/380 58/45/381 
f 48/28/382 47/29/383 56/41/384 
s 32
f 50/27/385 54/37/386 61/50/387 
f 53/36/388 48/26/389 57/42/390 
s 2
f 52/33/391 49/25/392 55/38/393 
f 47/24/394 51/32/395 59/46/396 
s off
f 54/35/397 52/33/398 76/75/399 
f 60/47/400 74/67/401 76/75/402 
f 61/52/403 67/71/404 74/72/405 
f 59/48/406 73/73/407 68/70/408 
s 1
f 64/55/409 63/54/410 66/57/411 
s 32
f 65/59/412 66/58/413 68/61/414 
s 4
f 69/62/415 72/65/416 71/64/417 
s 2
f 74/67/418 73/66/419 63/69/420 
s 1
f 67/71/421 68/70/422 73/73/423 
s off
f 76/75/424 75/74/425 78/77/426 
s 1
f 75/74/427 64/55/428 65/56/429 
f 70/63/430 66/57/431 63/54/432 
s 32
f 78/77/433 65/59/434 67/60/435 
f 71/81/436 68/61/437 66/58/438 
s 2
f 76/75/439 74/67/440 64/68/441 
f 69/62/442 63/69/443 73/66/444 
s off
f 61/50/445 54/37/446 77/80/447 
f 73/66/448 59/46/449 51/32/450 
f 51/32/451 53/34/452 71/64/453 
f 53/36/454 62/51/455 68/61/456 
# 0 polygons - 152 triangles

